<svg width="123" height="32" viewBox="0 0 123 32" fill="none" xmlns="http://www.w3.org/2000/svg">
<path d="M1.32 23V5.3H7.896C9.088 5.3 10.18 5.52 11.172 5.96C12.164 6.4 13.02 7.016 13.74 7.808C14.46 8.6 15.016 9.532 15.408 10.604C15.8 11.676 15.996 12.844 15.996 14.108C15.996 15.372 15.8 16.544 15.408 17.624C15.016 18.704 14.46 19.646 13.74 20.45C13.02 21.254 12.164 21.88 11.172 22.328C10.18 22.776 9.088 23 7.896 23H1.32ZM6.168 21.584L3.984 19.4H7.248C7.936 19.4 8.57 19.186 9.15 18.758C9.73 18.33 10.196 17.72 10.548 16.928C10.9 16.136 11.076 15.196 11.076 14.108C11.076 13.012 10.9 12.076 10.548 11.3C10.196 10.524 9.73 9.93 9.15 9.518C8.57 9.106 7.936 8.9 7.248 8.9H3.984L6.168 6.716V21.584ZM21.24 23.252C20.344 23.252 19.61 23.112 19.038 22.832C18.466 22.552 18.02 22.168 17.7 21.68C17.38 21.192 17.156 20.638 17.028 20.018C16.9 19.398 16.836 18.748 16.836 18.068C16.836 17.788 16.836 17.49 16.836 17.174C16.836 16.858 16.836 16.532 16.836 16.196V10.256H21.672V15.38C21.672 15.644 21.672 15.892 21.672 16.124C21.672 16.356 21.672 16.568 21.672 16.76C21.672 17.216 21.71 17.634 21.786 18.014C21.862 18.394 22.02 18.698 22.26 18.926C22.5 19.154 22.86 19.268 23.34 19.268C23.82 19.268 24.216 19.138 24.528 18.878C24.84 18.618 25.074 18.278 25.23 17.858C25.386 17.438 25.464 16.992 25.464 16.52L26.4 17.6C26.4 18.472 26.282 19.256 26.046 19.952C25.81 20.648 25.47 21.242 25.026 21.734C24.582 22.226 24.042 22.602 23.406 22.862C22.77 23.122 22.048 23.252 21.24 23.252ZM25.464 23V10.256H30.3V23H25.464ZM38.052 23.312C36.524 23.312 35.212 23.02 34.116 22.436C33.02 21.852 32.18 21.052 31.596 20.036C31.012 19.02 30.72 17.864 30.72 16.568C30.72 15.264 31.012 14.12 31.596 13.136C32.18 12.152 33.02 11.382 34.116 10.826C35.212 10.27 36.524 9.992 38.052 9.992C39.18 9.992 40.172 10.152 41.028 10.472C41.884 10.792 42.598 11.214 43.17 11.738C43.742 12.262 44.174 12.836 44.466 13.46C44.758 14.084 44.904 14.704 44.904 15.32C44.904 15.336 44.904 15.354 44.904 15.374C44.904 15.394 44.904 15.412 44.904 15.428H40.116C40.116 15.38 40.114 15.336 40.11 15.296C40.106 15.256 40.096 15.216 40.08 15.176C40.016 14.968 39.916 14.752 39.78 14.528C39.644 14.304 39.438 14.114 39.162 13.958C38.886 13.802 38.5 13.724 38.004 13.724C37.516 13.724 37.094 13.836 36.738 14.06C36.382 14.284 36.108 14.608 35.916 15.032C35.724 15.456 35.628 15.968 35.628 16.568C35.628 17.152 35.724 17.672 35.916 18.128C36.108 18.584 36.382 18.94 36.738 19.196C37.094 19.452 37.516 19.58 38.004 19.58C38.484 19.58 38.87 19.508 39.162 19.364C39.454 19.22 39.674 19.022 39.822 18.77C39.97 18.518 40.064 18.232 40.104 17.912H44.904C44.904 18.52 44.758 19.142 44.466 19.778C44.174 20.414 43.742 20.998 43.17 21.53C42.598 22.062 41.884 22.492 41.028 22.82C40.172 23.148 39.18 23.312 38.052 23.312ZM45.444 23V4.244H50.028V14.48L49.2 14.024L53.232 10.256H59.076L52.632 16.076L53.592 14.408L58.86 23H53.808L50.412 16.916L51.708 16.88L49.584 18.86L50.028 16.832V23H45.444ZM65.436 23.312C64.124 23.312 62.948 23.102 61.908 22.682C60.868 22.262 60.046 21.636 59.442 20.804C58.838 19.972 58.536 18.94 58.536 17.708C58.536 17.604 58.536 17.5 58.536 17.396C58.536 17.292 58.536 17.188 58.536 17.084H63.372C63.372 17.172 63.372 17.26 63.372 17.348C63.372 17.436 63.372 17.524 63.372 17.612C63.372 18.172 63.546 18.64 63.894 19.016C64.242 19.392 64.772 19.58 65.484 19.58C66.172 19.58 66.714 19.478 67.11 19.274C67.506 19.07 67.704 18.736 67.704 18.272C67.704 17.928 67.518 17.608 67.146 17.312C66.774 17.016 66.274 16.736 65.646 16.472C65.018 16.208 64.32 15.956 63.552 15.716C62.72 15.452 61.93 15.096 61.182 14.648C60.434 14.2 59.824 13.618 59.352 12.902C58.88 12.186 58.644 11.296 58.644 10.232C58.644 9.136 58.948 8.198 59.556 7.418C60.164 6.638 60.982 6.04 62.01 5.624C63.038 5.208 64.18 5 65.436 5C66.74 5 67.906 5.204 68.934 5.612C69.962 6.02 70.776 6.62 71.376 7.412C71.976 8.204 72.276 9.184 72.276 10.352C72.276 10.456 72.276 10.556 72.276 10.652C72.276 10.748 72.276 10.848 72.276 10.952H67.44C67.44 10.912 67.44 10.85 67.44 10.766C67.44 10.682 67.44 10.62 67.44 10.58C67.44 10.06 67.294 9.62 67.002 9.26C66.71 8.9 66.208 8.72 65.496 8.72C64.792 8.72 64.25 8.848 63.87 9.104C63.49 9.36 63.3 9.732 63.3 10.22C63.3 10.564 63.46 10.866 63.78 11.126C64.1 11.386 64.542 11.628 65.106 11.852C65.67 12.076 66.308 12.316 67.02 12.572C68.092 12.948 69.032 13.362 69.84 13.814C70.648 14.266 71.278 14.832 71.73 15.512C72.182 16.192 72.408 17.064 72.408 18.128C72.408 19.24 72.108 20.182 71.508 20.954C70.908 21.726 70.082 22.312 69.03 22.712C67.978 23.112 66.78 23.312 65.436 23.312ZM80.328 23.312C79.776 23.312 79.194 23.27 78.582 23.186C77.97 23.102 77.396 22.928 76.86 22.664C76.324 22.4 75.888 22.002 75.552 21.47C75.216 20.938 75.048 20.224 75.048 19.328C75.048 19.144 75.048 18.96 75.048 18.776C75.048 18.592 75.048 18.412 75.048 18.236V13.856H72.204V10.256H72.264C72.888 10.256 73.386 10.228 73.758 10.172C74.13 10.116 74.408 9.98 74.592 9.764C74.776 9.548 74.898 9.208 74.958 8.744C75.018 8.28 75.048 7.64 75.048 6.824V6.08H79.896V10.256H83.412V13.856H79.896V17.372C79.896 17.492 79.896 17.61 79.896 17.726C79.896 17.842 79.896 17.96 79.896 18.08C79.896 18.544 79.952 18.936 80.064 19.256C80.176 19.576 80.476 19.736 80.964 19.736C81.252 19.736 81.524 19.708 81.78 19.652C82.036 19.596 82.228 19.54 82.356 19.484V22.976C82.172 23.056 81.906 23.132 81.558 23.204C81.21 23.276 80.8 23.312 80.328 23.312ZM90.588 23.3C89.148 23.3 87.882 23.02 86.79 22.46C85.698 21.9 84.846 21.12 84.234 20.12C83.622 19.12 83.316 17.96 83.316 16.64C83.316 15.32 83.622 14.16 84.234 13.16C84.846 12.16 85.698 11.382 86.79 10.826C87.882 10.27 89.148 9.992 90.588 9.992C92.028 9.992 93.294 10.27 94.386 10.826C95.478 11.382 96.33 12.16 96.942 13.16C97.554 14.16 97.86 15.32 97.86 16.64C97.86 17.96 97.554 19.12 96.942 20.12C96.33 21.12 95.478 21.9 94.386 22.46C93.294 23.02 92.028 23.3 90.588 23.3ZM90.5906 19.64C91.0849 19.64 91.508 19.516 91.86 19.268C92.212 19.02 92.482 18.672 92.67 18.224C92.858 17.776 92.952 17.2489 92.952 16.6426C92.952 16.0364 92.858 15.5104 92.67 15.0646C92.482 14.6189 92.212 14.274 91.86 14.03C91.508 13.786 91.0849 13.664 90.5906 13.664C90.1009 13.664 89.678 13.786 89.322 14.03C88.966 14.274 88.694 14.6189 88.506 15.0646C88.318 15.5104 88.224 16.0364 88.224 16.6426C88.224 17.2489 88.318 17.776 88.506 18.224C88.694 18.672 88.966 19.02 89.322 19.268C89.678 19.516 90.1009 19.64 90.5906 19.64ZM98.4 23V10.256H103.248V14.972L102.42 14.324C102.54 13.644 102.728 13.036 102.984 12.5C103.24 11.964 103.562 11.51 103.95 11.138C104.338 10.766 104.786 10.482 105.294 10.286C105.802 10.09 106.368 9.992 106.992 9.992C107.512 9.992 107.906 10.026 108.174 10.094C108.442 10.162 108.608 10.216 108.672 10.256L108.012 14.48C107.94 14.44 107.78 14.378 107.532 14.294C107.284 14.21 106.984 14.168 106.632 14.168C106.008 14.168 105.48 14.266 105.048 14.462C104.616 14.658 104.268 14.922 104.004 15.254C103.74 15.586 103.548 15.958 103.428 16.37C103.308 16.782 103.248 17.2 103.248 17.624V23H98.4ZM110.856 17.948V15.068H118.368L118.008 15.692C118.008 15.628 118.008 15.558 118.008 15.482C118.008 15.406 118.008 15.34 118.008 15.284C118.008 15.012 117.93 14.73 117.774 14.438C117.618 14.146 117.366 13.9 117.018 13.7C116.67 13.5 116.204 13.4 115.62 13.4C115.052 13.4 114.576 13.52 114.192 13.76C113.808 14 113.52 14.354 113.328 14.822C113.136 15.29 113.04 15.86 113.04 16.532C113.04 17.236 113.132 17.836 113.316 18.332C113.5 18.828 113.792 19.206 114.192 19.466C114.592 19.726 115.116 19.856 115.764 19.856C116.148 19.856 116.476 19.828 116.748 19.772C117.02 19.716 117.238 19.644 117.402 19.556C117.566 19.468 117.69 19.372 117.774 19.268C117.858 19.164 117.908 19.064 117.924 18.968H122.7C122.644 19.528 122.442 20.068 122.094 20.588C121.746 21.108 121.268 21.574 120.66 21.986C120.052 22.398 119.32 22.722 118.464 22.958C117.608 23.194 116.64 23.312 115.56 23.312C114.064 23.312 112.768 23.03 111.672 22.466C110.576 21.902 109.732 21.118 109.14 20.114C108.548 19.11 108.252 17.956 108.252 16.652C108.252 15.316 108.556 14.148 109.164 13.148C109.772 12.148 110.626 11.372 111.726 10.82C112.826 10.268 114.104 9.992 115.56 9.992C117.064 9.992 118.362 10.274 119.454 10.838C120.546 11.402 121.388 12.202 121.98 13.238C122.572 14.274 122.868 15.504 122.868 16.928C122.868 17.168 122.864 17.372 122.856 17.54C122.848 17.708 122.836 17.844 122.82 17.948H110.856Z" fill="#1A1C1B"/>
</svg>
